<?xml version="1.0" encoding="UTF-8" standalone="no"?>
<!-- Created with Inkscape (http://www.inkscape.org/) -->

<svg
   xmlns:dc="http://purl.org/dc/elements/1.1/"
   xmlns:cc="http://creativecommons.org/ns#"
   xmlns:rdf="http://www.w3.org/1999/02/22-rdf-syntax-ns#"
   xmlns:svg="http://www.w3.org/2000/svg"
   xmlns="http://www.w3.org/2000/svg"
   xmlns:sodipodi="http://sodipodi.sourceforge.net/DTD/sodipodi-0.dtd"
   xmlns:inkscape="http://www.inkscape.org/namespaces/inkscape"
   version="1.1"
   width="282"
   height="75"
   id="Nejcoin-Logo"
   sodipodi:docname="Nejcoin-Logo.svg"
   inkscape:version="0.92.4 (5da689c313, 2019-01-14)">
  <sodipodi:namedview
     pagecolor="#ffffff"
     bordercolor="#666666"
     borderopacity="1"
     objecttolerance="10"
     gridtolerance="10"
     guidetolerance="10"
     inkscape:pageopacity="0"
     inkscape:pageshadow="2"
     inkscape:window-width="1920"
     inkscape:window-height="1057"
     id="namedview3737"
     showgrid="false"
     inkscape:zoom="2.8284271"
     inkscape:cx="148.20805"
     inkscape:cy="72.543007"
     inkscape:window-x="-8"
     inkscape:window-y="-8"
     inkscape:window-maximized="1"
     inkscape:current-layer="Nejcoin-Logo" />
  <metadata
     id="metadata8">
    <rdf:RDF>
      <cc:Work
         rdf:about="">
        <dc:format>image/svg+xml</dc:format>
        <dc:type
           rdf:resource="http://purl.org/dc/dcmitype/StillImage" />
        <dc:title></dc:title>
      </cc:Work>
    </rdf:RDF>
  </metadata>
  <defs
     id="defs6" />
  <path
     style="fill:#2c80ff;stroke:#ff0000;stroke-width:0;stroke-linecap:butt;stroke-linejoin:miter;stroke-opacity:1;fill-opacity:1;stroke-miterlimit:4;stroke-dasharray:none"
     d="M 20.505859 17.550781 L 20.505859 49.636719 L 2.5703125 49.636719 A 36.99585 36.99585 0 0 0 6.4726562 57.544922 L 30.011719 57.544922 L 30.011719 31.978516 L 44.738281 57.488281 L 54.341797 57.488281 L 54.341797 25.347656 L 72.371094 25.347656 A 36.99585 36.99585 0 0 0 68.748047 17.664062 L 44.591797 17.664062 L 44.591797 42.783203 L 30.023438 17.550781 L 20.505859 17.550781 z "
     id="path8026" />
  <text
     xml:space="preserve"
     style="font-style:normal;font-variant:normal;font-weight:normal;font-stretch:normal;font-size:45.33333206px;line-height:1.25;font-family:Roboto;-inkscape-font-specification:Roboto;letter-spacing:0px;word-spacing:0px;fill:#000000;fill-opacity:1;stroke:none"
     x="89.223724"
     y="56.929222"
     id="text3754"><tspan
       sodipodi:role="line"
       id="tspan3752"
       x="89.223724"
       y="56.929222">NEJCOIN</tspan></text>
  <path
     style="opacity:1;fill:#00ff00;fill-opacity:1"
     d="M 37.392578,0.26757812 C 16.960144,0.26744357 0.39634969,16.831238 0.39648438,37.263672 0.41137114,42.647556 1.6011683,47.963316 3.8828125,52.839844 3.3955735,51.7932 2.9575942,50.724322 2.5703125,49.636719 H 20.505859 V 17.550781 h 9.517579 L 44.591797,42.783203 V 17.664062 h 24.15625 C 61.992699,6.8490622 50.144005,0.27522936 37.392578,0.26757812 Z"
     id="path858" />
  <path
     style="opacity:1;fill:#00ff00;fill-opacity:1"
     d="m 71.123047,22.181641 c 0.456425,1.020616 0.866351,2.061398 1.228515,3.11914 -0.362164,-1.057742 -0.77209,-2.098524 -1.228515,-3.11914 z"
     id="path856" />
  <path
     style="opacity:1;fill:#803300;fill-opacity:1"
     d="M 54.341797,25.347656 V 57.488281 H 44.738281 L 30.011719,31.978516 V 57.544922 H 6.4726562 c 6.8333288,10.423749 18.4560188,16.706065 30.9199218,16.71289 20.431671,1.35e-4 36.99515,-16.562469 36.996094,-36.99414 -0.01607,-4.055962 -0.699013,-8.081677 -2.021484,-11.916016 z"
     id="path854" />
  <path
     style="opacity:1;fill:#00ff00;fill-opacity:1"
     d="M 6.4726562,57.544922 C 6.297848,57.273089 6.1266094,56.998977 5.9589844,56.722656 c 0.167625,0.276321 0.3388636,0.550433 0.5136718,0.822266 z"
     id="path3767" />
</svg>
